<?xml version="1.0" encoding="UTF-8"?>
<svg width="23px" height="20px" viewBox="0 0 23 20" version="1.1" xmlns="http://www.w3.org/2000/svg" xmlns:xlink="http://www.w3.org/1999/xlink">
    <!-- Generator: Sketch 43.2 (39069) - http://www.bohemiancoding.com/sketch -->
    <title>Compare</title>
    <desc>Created with Sketch.</desc>
    <defs></defs>
    <g id="Pages" stroke="none" stroke-width="1" fill="none" fill-rule="evenodd" opacity="0.437216938">
        <g id="Add-Comment" transform="translate(-200.000000, -221.000000)" fill-rule="nonzero" fill="#231F20">
            <g id="Group-4" transform="translate(200.000000, 221.000000)">
                <g id="Compare">
                    <g id="Group">
                        <g id="Layer_2">
                            <path d="M21.5053763,12.8571429 L18.9964158,3.32142857 L20.9892473,2.96428571 C21.4937729,2.87496932 21.9121533,2.52423766 22.0867886,2.04420794 C22.2614239,1.56417822 22.1657828,1.02777839 21.8358925,0.637065068 C21.5060022,0.24635175 20.9919808,0.0606835941 20.4874552,0.15 L13.1971326,1.42857143 C12.6193649,0.847775486 11.7924566,0.586280067 10.9843088,0.728804237 C10.176161,0.871328407 9.48956119,1.39974466 9.14695341,2.14285714 L1.88530466,3.46428571 C1.10537566,3.6023569 0.585448271,4.34428503 0.724014337,5.12142857 C0.862580403,5.89857211 1.60716777,6.41664262 2.38709677,6.27857143 L4.47311828,5.90714286 L1.43369176,15 L0.716845878,15 C0.716845878,17.5641792 2.80297428,19.6428571 5.37634409,19.6428571 C7.94971389,19.6428571 10.0358423,17.5641792 10.0358423,15 L9.31899642,15 L6.8172043,5.48571429 L9.64874552,5 C10.226586,5.57765158 11.0514696,5.83711347 11.8574207,5.6947247 C12.6633717,5.55233593 13.3484491,5.02610661 13.6917563,4.28571429 L16.6738351,3.75714286 L13.6200717,12.8571429 L12.8530466,12.8571429 C12.8530466,15.4213221 14.939175,17.5 17.5125448,17.5 C20.0859146,17.5 22.172043,15.4213221 22.172043,12.8571429 L21.5053763,12.8571429 Z M3.33333333,15 L5.64874552,8.05714286 L7.48387097,15 L3.33333333,15 Z M15.5197133,12.8571429 L17.8351254,5.91428571 L19.6702509,12.8571429 L15.5197133,12.8571429 Z" id="Shape"></path>
                        </g>
                    </g>
                </g>
            </g>
        </g>
    </g>
</svg>