<?xml version="1.0" encoding="UTF-8"?>
<svg width="50px" height="50px" viewBox="0 0 50 50" version="1.1" xmlns="http://www.w3.org/2000/svg" xmlns:xlink="http://www.w3.org/1999/xlink">
    <!-- Generator: Sketch 43.2 (39069) - http://www.bohemiancoding.com/sketch -->
    <title>FacebookShare</title>
    <desc>Created with Sketch.</desc>
    <defs></defs>
    <g id="Pages" stroke="none" stroke-width="1" fill="none" fill-rule="evenodd">
        <g id="Topic-Add-OK" transform="translate(-156.000000, -452.000000)" fill="#3A589B">
            <g id="FacebookShare" transform="translate(156.000000, 452.000000)">
                <g id="Layer_1">
                    <path d="M21.4708333,38.6 L27.0908333,38.6 L27.0908333,24.9983333 L30.84,24.9983333 L31.3366667,20.3116667 L27.0908333,20.3116667 L27.0966667,17.965 C27.0966667,16.7433333 27.2133333,16.0875 28.9666667,16.0875 L31.31,16.0875 L31.31,11.4 L27.56,11.4 C23.0558333,11.4 21.4708333,13.6741667 21.4708333,17.4975 L21.4708333,20.3116667 L18.6633333,20.3116667 L18.6633333,24.9991667 L21.4708333,24.9991667 L21.4708333,38.6 L21.4708333,38.6 Z M25,50 C11.1933333,50 0,38.8066667 0,25 C0,11.1925 11.1933333,0 25,0 C38.8066667,0 50,11.1925 50,25 C50,38.8066667 38.8066667,50 25,50 Z" id="Shape"></path>
                </g>
            </g>
        </g>
    </g>
</svg>