<?xml version="1.0" encoding="UTF-8"?>
<svg width="22px" height="22px" viewBox="0 0 22 22" version="1.1" xmlns="http://www.w3.org/2000/svg" xmlns:xlink="http://www.w3.org/1999/xlink">
    <!-- Generator: Sketch 43.2 (39069) - http://www.bohemiancoding.com/sketch -->
    <title>GoogleLogin</title>
    <desc>Created with Sketch.</desc>
    <defs></defs>
    <g id="Pages" stroke="none" stroke-width="1" fill="none" fill-rule="evenodd">
        <g id="Welcome" transform="translate(-70.000000, -358.000000)" fill-rule="nonzero">
            <g id="Group-2" transform="translate(59.000000, 350.000000)">
                <g id="GoogleLogin" transform="translate(11.000000, 8.000000)">
                    <g id="Layer_1">
                        <g id="Group">
                            <path d="M7.56775956,0.601608579 C4.84480874,1.51581769 2.52459016,3.5152815 1.23224044,6.04557641 C0.781420765,6.91849866 0.456830601,7.84450402 0.258469945,8.80589812 C-0.23442623,11.1887399 0.108196721,13.7308311 1.22622951,15.9013405 C1.95355191,17.3168901 2.99945355,18.5790885 4.26174863,19.5640751 C5.4579235,20.4959786 6.84644809,21.1919571 8.32513661,21.5753351 C10.1885246,22.0648794 12.1721311,22.0530831 14.047541,21.6343164 C15.742623,21.2509383 17.347541,20.4546917 18.6278689,19.2986595 C19.9803279,18.077748 20.9480874,16.4734584 21.4590164,14.7453083 C22.0180328,12.863807 22.0901639,10.8525469 21.7415301,8.91796247 L11.2224044,8.91796247 L11.2224044,13.2 L17.3174863,13.2 C17.0830601,14.5683646 16.2535519,15.8187668 15.0814208,16.5914209 C14.3420765,17.0809651 13.4945355,17.3935657 12.6169399,17.5469169 C11.7393443,17.69437 10.8256831,17.7120643 9.94808743,17.5410188 C9.05245902,17.3640751 8.20491803,16.9983914 7.45956284,16.4852547 C6.26939891,15.6654155 5.36174863,14.4680965 4.8989071,13.1174263 C4.42404372,11.7431635 4.41803279,10.2155496 4.8989071,8.84718499 C5.23551913,7.87989276 5.78852459,6.98927614 6.52185792,6.25790885 C7.42349727,5.34959786 8.59562842,4.70080429 9.86393443,4.43538874 C10.9459016,4.21126005 12.0879781,4.25254692 13.1459016,4.56514745 C14.047541,4.830563 14.8770492,5.32010724 15.5562842,5.95710456 C16.2415301,5.2847185 16.926776,4.61233244 17.6120219,3.93994638 C17.9726776,3.58016086 18.3513661,3.23217158 18.7,2.86058981 C17.6601093,1.91689008 16.4338798,1.15603217 15.0994536,0.672386059 C12.695082,-0.200536193 9.99016393,-0.218230563 7.56775956,0.601608579 Z" id="Shape" fill="#FFFFFF"></path>
                            <path d="M7.56775956,0.601608579 C9.98415301,-0.218230563 12.695082,-0.200536193 15.0994536,0.666487936 C16.4338798,1.15013405 17.6540984,1.90509383 18.7,2.85469169 C18.3513661,3.22627346 17.9726776,3.57426273 17.6120219,3.93404826 C16.926776,4.60643432 16.2415301,5.27882038 15.5562842,5.95120643 C14.8770492,5.31420912 14.047541,4.830563 13.1459016,4.55924933 C12.0879781,4.24664879 10.9459016,4.19946381 9.86393443,4.42949062 C8.60163934,4.69490617 7.4295082,5.34369973 6.52185792,6.25201072 C5.78852459,6.97747989 5.23551913,7.87399464 4.8989071,8.84128686 C3.67868852,7.90938338 2.45846995,6.98337802 1.23224044,6.05147453 C2.52459016,3.5152815 4.84480874,1.51581769 7.56775956,0.601608579 Z" id="Shape" fill="#EA4335"></path>
                            <path d="M0.264480874,8.8 C0.46284153,7.84450402 0.787431694,6.91260054 1.23825137,6.03967828 C2.45846995,6.97158177 3.67868852,7.89758713 4.90491803,8.82949062 C4.42404372,10.2037534 4.42404372,11.7313673 4.90491803,13.0997319 C3.68469945,14.0316354 2.46448087,14.9635389 1.2442623,15.8895442 C0.11420765,13.724933 -0.228415301,11.1828418 0.264480874,8.8 Z" id="Shape" fill="#FBBC05"></path>
                            <path d="M11.2224044,8.91206434 L21.7415301,8.91206434 C22.0901639,10.8407507 22.0120219,12.8520107 21.4590164,14.7394102 C20.9480874,16.4675603 19.9803279,18.0718499 18.6278689,19.2927614 C17.4437158,18.3903485 16.2595628,17.4879357 15.0754098,16.5855228 C16.247541,15.8128686 17.0770492,14.5624665 17.3114754,13.1941019 L11.2163934,13.1941019 C11.2224044,11.766756 11.2224044,10.3394102 11.2224044,8.91206434 Z" id="Shape" fill="#4285F4"></path>
                            <path d="M1.23224044,15.8954424 C2.45245902,14.969437 3.6726776,14.0375335 4.89289617,13.10563 C5.36174863,14.4563003 6.26338798,15.6536193 7.45355191,16.4734584 C8.1989071,16.9865952 9.05245902,17.3522788 9.9420765,17.5292225 C10.8196721,17.7061662 11.7273224,17.6825737 12.610929,17.5351206 C13.4885246,17.3817694 14.3360656,17.0691689 15.0754098,16.5796247 C16.2595628,17.4820375 17.4437158,18.3844504 18.6278689,19.2868633 C17.347541,20.4487936 15.742623,21.2391421 14.047541,21.6225201 C12.1721311,22.0412869 10.1885246,22.0530831 8.32513661,21.5635389 C6.84644809,21.1801609 5.4579235,20.4900804 4.26174863,19.5522788 C3.00546448,18.5731903 1.95956284,17.310992 1.23224044,15.8954424 Z" id="Shape" fill="#34A853"></path>
                        </g>
                    </g>
                </g>
            </g>
        </g>
    </g>
</svg>