<?xml version="1.0" encoding="UTF-8"?>
<svg width="22px" height="20px" viewBox="0 0 22 20" version="1.1" xmlns="http://www.w3.org/2000/svg" xmlns:xlink="http://www.w3.org/1999/xlink">
    <!-- Generator: Sketch 43.2 (39069) - http://www.bohemiancoding.com/sketch -->
    <title>Insights</title>
    <desc>Created with Sketch.</desc>
    <defs></defs>
    <g id="Pages" stroke="none" stroke-width="1" fill="none" fill-rule="evenodd" opacity="0.437216938">
        <g id="Add-Comment" transform="translate(-60.000000, -221.000000)" fill-rule="nonzero" fill="#000000">
            <g id="Group-2" transform="translate(60.000000, 221.000000)">
                <g id="Insights">
                    <g id="icons" transform="translate(0.000000, -0.000000)">
                        <g id="dashboard">
                            <path d="M3.87878788,15.5151515 L1.93939394,15.5151515 C0.872727273,15.5151515 0,16.3878788 0,17.4545455 C0,18.5212121 0.872727273,19.3939394 1.93939394,19.3939394 L3.87878788,19.3939394 C4.94545455,19.3939394 5.81818182,18.5212121 5.81818182,17.4545455 C5.81818182,16.3878788 4.94545455,15.5151515 3.87878788,15.5151515 Z" id="Shape"></path>
                            <path d="M11.6363636,13.5757576 L9.6969697,13.5757576 C8.63030303,13.5757576 7.75757576,14.4484848 7.75757576,15.5151515 L7.75757576,17.4545455 C7.75757576,18.5212121 8.63030303,19.3939394 9.6969697,19.3939394 L11.6363636,19.3939394 C12.7030303,19.3939394 13.5757576,18.5212121 13.5757576,17.4545455 L13.5757576,15.5151515 C13.5757576,14.4484848 12.7030303,13.5757576 11.6363636,13.5757576 Z" id="Shape"></path>
                            <path d="M19.3939394,9.6969697 L17.4545455,9.6969697 C16.3878788,9.6969697 15.5151515,10.569697 15.5151515,11.6363636 L15.5151515,17.4545455 C15.5151515,18.5212121 16.3878788,19.3939394 17.4545455,19.3939394 L19.3939394,19.3939394 C20.4606061,19.3939394 21.3333333,18.5212121 21.3333333,17.4545455 L21.3333333,11.6363636 C21.3333333,10.569697 20.4606061,9.6969697 19.3939394,9.6969697 Z" id="Shape"></path>
                            <path d="M20.3636364,0 L13.9636364,0 C13.0909091,0 12.7030303,1.06666667 13.2848485,1.64848485 L15.1272727,3.49090909 C11.5393939,7.56363636 6.4,10.6666667 0.96969697,10.6666667 C0.387878788,10.6666667 0,11.0545455 0,11.6363636 C0,12.2181818 0.387878788,12.6060606 0.96969697,12.6060606 C7.46666667,12.6060606 13.4787879,10.7636364 17.8424242,6.20606061 L19.5878788,7.95151515 C20.169697,8.53333333 21.2363636,8.14545455 21.2363636,7.27272727 L21.2363636,0.96969697 C21.3333333,0.387878788 20.9454545,0 20.3636364,0 Z" id="Shape"></path>
                        </g>
                    </g>
                </g>
            </g>
        </g>
    </g>
</svg>