<?xml version="1.0" encoding="UTF-8"?>
<svg width="24px" height="25px" viewBox="0 0 24 25" version="1.1" xmlns="http://www.w3.org/2000/svg" xmlns:xlink="http://www.w3.org/1999/xlink">
    <!-- Generator: Sketch 43.2 (39069) - http://www.bohemiancoding.com/sketch -->
    <title>Layer_1</title>
    <desc>Created with Sketch.</desc>
    <defs></defs>
    <g id="Pages" stroke="none" stroke-width="1" fill="none" fill-rule="evenodd">
        <g id="Welcome" transform="translate(-70.000000, -310.000000)" fill-rule="nonzero">
            <g id="Group-3" transform="translate(59.000000, 304.000000)">
                <g id="FaceLogin" transform="translate(11.000000, 6.000000)">
                    <g id="Layer_1">
                        <g id="Group">
                            <path d="M24,22.5 C24,23.328 23.328,24 22.5,24 L1.5,24 C0.672,24 0,23.328 0,22.5 L0,1.5 C0,0.672 0.672,0 1.5,0 L22.5,0 C23.328,0 24,0.672 24,1.5 L24,22.5 Z" id="Shape" fill="#FFFFFF"></path>
                            <path d="M18.75,25 L18.75,16 L21.75,16 L22.5,12.25 L18.75,12.25 L18.75,10.75 C18.75,9.25 19.5015,8.5 21,8.5 L22.5,8.5 L22.5,4.75 L19.5,4.75 C16.74375,4.75 15,6.91075 15,10 L15,12.25 L12,12.25 L12,16 L15,16 L15,25 L18.75,25 Z" id="f" fill="#3B5998"></path>
                        </g>
                    </g>
                </g>
            </g>
        </g>
    </g>
</svg>