<?xml version="1.0" encoding="UTF-8"?>
<svg width="24px" height="30px" viewBox="0 0 24 30" version="1.1" xmlns="http://www.w3.org/2000/svg" xmlns:xlink="http://www.w3.org/1999/xlink">
    <!-- Generator: Sketch 43.2 (39069) - http://www.bohemiancoding.com/sketch -->
    <title>pinch</title>
    <desc>Created with Sketch.</desc>
    <defs></defs>
    <g id="Pages" stroke="none" stroke-width="1" fill="none" fill-rule="evenodd" opacity="0.686424366">
        <g id="Map-Search" transform="translate(-14.000000, -356.000000)" fill="#000000">
            <g id="pinch" transform="translate(14.000000, 356.000000)">
                <g id="Layer_1">
                    <path d="M21.2979048,11.8842308 C21.576381,12.3707692 21.7752381,12.7573077 21.7752381,12.7573077 L20.928381,10.2888462 C21.567619,10.2530769 22.0624762,10.6853846 22.6575238,11.5726923 C22.8605714,11.8753846 23.3809524,13.2696154 23.4285714,13.9188462 C23.5325714,15.3361538 23.640381,19.5742308 23.0952381,20.9861538 C22.6830476,22.0538462 23.6491429,24.4769231 23.72,24.825 C23.7908571,25.1730769 24.16,26.3003846 23.5386667,27.2926923 C22.6609524,28.6953846 21.0605714,29.2403846 19.5737143,29.5284615 C17.8746667,29.8576923 16.2057143,29.5730769 15.4586667,29.2561538 C14.711619,28.9392308 14.7912381,28.27 14.6499048,27.5738462 C14.5085714,26.8776923 13.2220952,25.6130769 12.1569524,25.1446154 C11.0918095,24.6761538 8.30704762,22.6411538 8.13904762,22.1680769 C7.97104762,21.695 6.85828571,19.9930769 6.69028571,19.5203846 C6.52228571,19.0473077 5.61714286,17.6134615 5.58552381,17.1165385 C5.55390476,16.6196154 5.70514286,16.0538462 5.71390476,15.2415385 C5.7207619,14.5938462 5.81828571,12.9942308 5.98857143,12.8615385 C6.40038095,12.5411538 7.45219048,12.9576923 7.76152381,13.3661538 C8.21371429,13.9630769 8.40533333,14.83 8.54704762,15.2653846 C8.69295238,15.7123077 8.768,16.4153846 8.88838095,16.5392308 C9.26133333,16.9238462 10.4118095,18.5657692 10.6342857,18.6865385 C10.8567619,18.8073077 11.8807619,17.3888462 12.904,17.1642308 C13.3348571,17.0696154 14.7611429,14.7196154 13.7771429,12.6288462 C13.3207619,11.6592308 13.0300952,10.1007692 12.8327619,10.1326923 C12.6304762,10.1653846 11.9977143,9.81269231 11.6502857,9.80807692 C11.3173333,9.80384615 10.7066667,9.70769231 10.5687619,9.73076923 C10.1851429,9.79538462 9.58057143,9.88192308 9.11047619,9.98423077 C8.30095238,10.1603846 7.81485714,9.87153846 7.79314286,9.34307692 C7.77714286,8.95846154 8.53828571,8.56 8.8327619,8.26923077 C9.49485714,7.61615385 10.456,7.51846154 10.5234286,7.48384615 C11.0788571,7.19807692 13.928,7.25730769 14.3112381,7.55615385 C14.992,8.08653846 16.8091429,8.99038462 17.6186667,11.0576923 C17.7089524,11.2876923 17.999619,9.51923077 15.5234286,8.17307692 C15.5234286,8.17307692 15.7051429,8.11269231 15.999619,8.10076923 C16.5946667,8.07692308 17.8464762,8.31692308 18.4518095,8.55769231 C19.0910476,8.81153846 20.1900952,9.74346154 20.5074286,10.1923077 C20.8255238,10.6411538 21.2979048,11.8842308 21.2979048,11.8842308 Z" id="Shape"></path>
                    <path d="M1.3752381,11.0292308 L0.279619048,10.62 L3.20266667,8.80307692 L4.34552381,12.0592308 L3.1127619,11.5988462 C3.1127619,11.5988462 2.09409524,13.105 1.41028571,14.9715385 C0.72647619,16.8384615 0.294095238,19.5065385 0.294095238,19.5065385 C0.294095238,19.5065385 -0.32152381,15.6615385 1.3752381,11.0292308 Z" id="Shape"></path>
                    <path d="M6.1112381,4.41153846 L5.31009524,3.55307692 L4.79542857,6.97961538 L8.21066667,6.77 L7.30933333,5.80423077 C7.30933333,5.80423077 8.28457143,4.26923077 9.71961905,2.90461538 C11.1546667,1.54 13.4186667,0.0957692308 13.4186667,0.0957692308 C13.4186667,0.0957692308 9.67238095,1.025 6.1112381,4.41153846 Z" id="Shape"></path>
                    <path d="M12.7142857,10.4084615 C12.383619,9.90769231 11.9497143,14.0446154 12.2453333,14.5669231 C12.7222857,15.4096154 13.3828571,16.1046154 13.4998095,16.0092308 C13.840381,15.7319231 13.9969524,13.6765385 13.7554286,13.1923077 C13.4091429,12.4984615 12.9527619,10.77 12.7142857,10.4084615 Z" id="Shape"></path>
                </g>
            </g>
        </g>
    </g>
</svg>