<?xml version="1.0" encoding="UTF-8"?>
<svg width="96px" height="96px" viewBox="0 0 96 96" version="1.1" xmlns="http://www.w3.org/2000/svg" xmlns:xlink="http://www.w3.org/1999/xlink">
    <!-- Generator: Sketch 43.2 (39069) - http://www.bohemiancoding.com/sketch -->
    <title>Rit Logo Black</title>
    <desc>Created with Sketch.</desc>
    <defs></defs>
    <g id="-" stroke="none" stroke-width="1" fill="none" fill-rule="evenodd">
        <g id="Rit-Logo-Black" fill="#000000">
            <g id="Rit" transform="translate(49.009833, 48.438775) rotate(-5.000000) translate(-49.009833, -48.438775) translate(2.509833, 1.938775)">
                <path d="M89.2959055,46.1813168 C89.2959055,22.3697869 69.9928466,3.06672807 46.1813168,3.06672807 C22.3697869,3.06672807 3.06672807,22.3697869 3.06672807,46.1813168 C3.06672807,69.9928466 22.3697869,89.2959055 46.1813168,89.2959055 C69.9928466,89.2959055 89.2959055,69.9928466 89.2959055,46.1813168 Z M-2.06501483e-14,46.1813168 C-2.06501483e-14,20.6760798 20.6760798,-8.8817842e-15 46.1813168,-8.8817842e-15 C71.6865538,-8.8817842e-15 92.3626336,20.6760798 92.3626336,46.1813168 C92.3626336,71.6865538 71.6865538,92.3626336 46.1813168,92.3626336 C20.6760798,92.3626336 -2.06501483e-14,71.6865538 -2.06501483e-14,46.1813168 Z" id="Mask" fill-rule="nonzero"></path>
                <g id="Group" transform="translate(2.345145, 35.898758)">
                    <path d="M50.3128904,32.1671317 C48.2464735,38.9309809 45.7927375,40.8614315 43.1857911,40.8614315 C40.2985568,40.8614315 37.883779,38.5516441 37.883779,33.1446417 C37.883779,33.1352383 37.8837865,33.1258267 37.8838014,33.1164071 C35.5296452,39.0318723 32.3193086,41.4227247 29.3795617,41.648859 C26.0198709,36.976789 22.2927139,32.1472335 18.4080715,27.5801538 C18.0406053,27.6851442 15.6258275,27.8951248 15.2058662,27.8951248 C14.6284193,32.4622045 14.2609531,36.6093228 14.1559628,39.759033 C13.2635449,40.388975 11.4787092,41.1764025 10.5862913,41.1764025 C9.74636863,41.1764025 9.53638795,40.5989557 9.53638795,39.4965571 C9.53638795,37.6592262 10.3238155,32.304719 11.2162334,27.2126876 C12.3711271,20.5982964 12.5811077,19.3384123 13.9984773,10.4667288 C14.7334097,9.99427232 16.5182454,9.3643303 17.3581681,9.3643303 C17.7781294,9.3643303 18.1455956,9.62680614 18.1455956,10.1517578 C18.1455956,10.8866902 17.4631584,14.6138472 16.8857116,17.8685476 C16.3607599,20.9132674 15.783313,23.9579872 15.468342,26.1627843 C19.7729458,26.1627843 24.1300448,24.8504051 27.3322501,22.0681611 C30.1669892,19.6533834 31.8468346,16.2411974 31.8468346,12.4615452 C31.8468346,6.05713467 27.1222695,2.22498736 20.1929072,2.22498736 C16.0457889,2.22498736 11.9511657,3.58986174 8.85395076,6.10962984 C5.86172615,8.5244076 3.70942423,12.0415839 3.70942423,16.4511781 C3.70942423,19.863364 4.96930828,24.2729582 8.53897975,25.5328422 L8.27650391,26.4252601 C3.70942423,26.3202698 0.139752761,22.9080838 0.139752761,17.5010814 C0.139752761,12.2515646 3.55193873,7.52699939 7.75155222,4.53477478 C11.6361947,1.75253084 16.5182454,0.177675777 21.4002961,0.177675777 C28.9596004,0.177675777 36.3614191,3.85233758 36.3614191,11.5166322 C36.3614191,15.3487795 34.5240882,18.7609655 31.8993298,21.3857239 C29.4845521,23.8529969 26.5448226,25.5328422 23.1326366,26.687736 C26.8072985,30.5723784 30.0619989,34.3520306 33.0017284,38.1316827 C35.3640109,36.0843712 37.6213032,31.989748 38.9336824,24.2729582 L38.9407029,24.2738358 C39.1948941,22.6859205 39.4427316,21.0737285 39.6161196,19.4958979 C40.5085375,18.918451 42.0833925,18.2360138 42.9233152,18.2360138 C43.5532573,18.2360138 43.8682283,18.60348 43.8682283,19.3909075 C43.8682283,20.1258399 43.5532573,21.8581804 43.1332959,23.905492 C42.5558491,26.7927263 41.925907,30.4148929 41.925907,33.3021272 C41.925907,36.5043325 42.7133346,38.8141199 44.3406848,38.8141199 C46.4404915,38.8141199 48.9077645,35.0344678 50.8500857,24.2729582 L50.9100147,24.2804493 C51.1106789,22.8926609 51.3486612,21.4537179 51.605944,20.001908 L48.8761952,20.1593935 C48.7187097,19.8969176 48.6662145,19.5294515 48.6662145,19.2144805 C48.6662145,18.9520046 48.7187097,18.6370336 48.7712049,18.4795481 L51.8684198,18.3220626 C52.4983618,14.5424104 52.865828,11.9701472 53.2857894,9.60786458 C54.2307024,8.97792256 55.9105478,8.29548537 56.7504705,8.29548537 C57.3804125,8.29548537 57.6428884,8.61045638 57.6428884,9.18790323 C57.6428884,10.2378066 56.6979753,14.3849249 56.0155381,18.1120819 L62.4724439,17.6396254 C62.5774342,17.7971109 62.6824246,18.1645771 62.6824246,18.4795481 C62.6824246,18.7945191 62.5774342,19.1619853 62.3674536,19.5294515 L55.7005671,19.7919273 C55.0181299,23.8340553 54.5456734,27.7711929 54.5456734,30.8159127 C54.5456734,36.5903813 56.2255188,39.5826059 58.5353062,39.5826059 C60.2676468,39.5826059 62.209968,37.9027605 63.7848231,34.4905745 L64.9397168,35.1205166 C62.7349197,40.3175383 59.6377048,41.6299175 57.3804125,41.6299175 C54.2108287,41.6299175 50.607288,39.1226111 50.3128904,32.1671317 Z M43.9207234,13.2489728 C42.3983635,13.2489728 41.1909747,11.9890887 41.1909747,10.4667288 C41.1909747,8.94436895 42.3983635,7.73698007 43.9207234,7.73698007 C45.4430833,7.73698007 46.6504722,8.94436895 46.6504722,10.4667288 C46.6504722,11.9890887 45.4430833,13.2489728 43.9207234,13.2489728 Z" id="Rit"></path>
                </g>
            </g>
        </g>
    </g>
</svg>