<?xml version="1.0" encoding="UTF-8"?>
<svg width="90px" height="90px" viewBox="0 0 90 90" version="1.1" xmlns="http://www.w3.org/2000/svg" xmlns:xlink="http://www.w3.org/1999/xlink">
    <!-- Generator: Sketch 43.2 (39069) - http://www.bohemiancoding.com/sketch -->
    <title>Rit Logo White</title>
    <desc>Created with Sketch.</desc>
    <defs></defs>
    <g id="Pages" stroke="none" stroke-width="1" fill="none" fill-rule="evenodd">
        <g id="Splash" transform="translate(-135.000000, -275.000000)" fill="#FFFFFF">
            <g id="Rit-Logo-White" transform="translate(132.000000, 272.000000)">
                <g id="Rit" transform="translate(48.000000, 48.000000) rotate(-5.000000) translate(-48.000000, -48.000000) translate(3.798561, 3.798561)">
                    <path d="M85.4676259,44.2014388 C85.4676259,21.4107531 66.9921246,2.9352518 44.2014388,2.9352518 C21.4107531,2.9352518 2.9352518,21.4107531 2.9352518,44.2014388 C2.9352518,66.9921246 21.4107531,85.4676259 44.2014388,85.4676259 C66.9921246,85.4676259 85.4676259,66.9921246 85.4676259,44.2014388 Z M5.68434189e-14,44.2014388 C5.68434189e-14,19.7896583 19.7896583,7.10542736e-15 44.2014388,7.10542736e-15 C68.6132194,7.10542736e-15 88.4028777,19.7896583 88.4028777,44.2014388 C88.4028777,68.6132194 68.6132194,88.4028777 44.2014388,88.4028777 C19.7896583,88.4028777 5.68434189e-14,68.6132194 5.68434189e-14,44.2014388 Z" id="Mask" fill-rule="nonzero"></path>
                    <g id="Group" transform="translate(2.244604, 34.359712)">
                        <path d="M48.1558843,30.7880677 C46.1780585,37.2619382 43.8295186,39.1096268 41.3343368,39.1096268 C38.5708836,39.1096268 36.2596318,36.8988642 36.2596318,31.72367 C36.2596318,31.7146697 36.259639,31.7056616 36.2596532,31.6966458 C34.006424,37.3585042 30.9337204,39.6468563 28.1200059,39.8632959 C24.9043512,35.3915261 21.3369843,30.7690225 17.6188836,26.3977419 C17.2671714,26.4982312 14.9559196,26.6992096 14.5539627,26.6992096 C14.0012721,31.0704901 13.6495599,35.0398139 13.5490707,38.0544901 C12.6949124,38.6574254 10.9865958,39.4110945 10.1324376,39.4110945 C9.32852389,39.4110945 9.12754548,38.8584038 9.12754548,37.8032671 C9.12754548,36.044706 9.88121454,30.9197563 10.7353728,26.0460297 C11.8407541,19.7152096 12.0417325,18.5093391 13.3983368,10.0180009 C14.1017613,9.5657995 15.8100779,8.96286425 16.6139915,8.96286425 C17.0159484,8.96286425 17.3676606,9.21408727 17.3676606,9.71653331 C17.3676606,10.4199578 16.7144807,13.9873247 16.1617901,17.1024901 C15.659344,20.0166772 15.1066534,22.9308642 14.8051858,25.0411376 C18.9252433,25.0411376 23.0955455,23.7850225 26.1604663,21.1220585 C28.873675,18.8108067 30.4815023,15.5449074 30.4815023,11.9272959 C30.4815023,5.79745417 25.9594879,2.12959806 19.3272002,2.12959806 C15.3578764,2.12959806 11.4387973,3.43595777 8.47436562,5.84769878 C5.61042317,8.15895058 3.5503944,11.5253391 3.5503944,15.7458858 C3.5503944,19.0117851 4.7562649,23.2323319 8.17289799,24.4382024 L7.92167497,25.2923606 C3.5503944,25.1918714 0.133761303,21.9259722 0.133761303,16.7507779 C0.133761303,11.7263175 3.39966058,7.20430309 7.41922893,4.34036065 C11.1373296,1.67739662 15.8100779,0.17005849 20.4828261,0.17005849 C27.7180491,0.17005849 34.8025383,3.68718079 34.8025383,11.022893 C34.8025383,14.6907491 33.0439771,17.9566484 30.5317469,20.4688786 C28.2204951,22.830375 25.4067973,24.4382024 22.140898,25.5435837 C25.6580203,29.2616844 28.7731858,32.8792959 31.5868836,36.4969074 C33.8478908,34.5373678 36.0084088,30.6182887 37.2645239,23.2323319 L37.2712434,23.2331718 C37.5145369,21.7133334 37.7517492,20.1702591 37.9177037,18.6600729 C38.771862,18.1073822 40.2792002,17.4542024 41.0831138,17.4542024 C41.6860491,17.4542024 41.9875167,17.8059146 41.9875167,18.5595837 C41.9875167,19.2630081 41.6860491,20.9210801 41.2840922,22.8806196 C40.7314016,25.6440729 40.1284663,29.1109506 40.1284663,31.8744038 C40.1284663,34.9393247 40.8821354,37.1500873 42.4397181,37.1500873 C44.4495023,37.1500873 46.8109987,33.5324758 48.6700491,23.2323319 L48.7274088,23.2395018 C48.9194701,21.9112105 49.1472497,20.5339576 49.3935023,19.1443894 L46.7807829,19.2951232 C46.6300491,19.0439002 46.5798045,18.692188 46.5798045,18.3907204 C46.5798045,18.1394973 46.6300491,17.8380297 46.6802937,17.6872959 L49.6447253,17.5365621 C50.2476606,13.9189506 50.5993728,11.456965 51.0013296,9.19595777 C51.9057325,8.59302252 53.5135599,7.93984266 54.3174735,7.93984266 C54.9204088,7.93984266 55.1716318,8.24131029 55.1716318,8.79400094 C55.1716318,9.79889302 54.2672289,13.7682168 53.6140491,17.3355837 L59.7941354,16.8833822 C59.8946246,17.034116 59.9951138,17.3858283 59.9951138,17.6872959 C59.9951138,17.9887635 59.8946246,18.3404758 59.6936462,18.692188 L53.3125814,18.943411 C52.6594016,22.8122455 52.2072002,26.5805909 52.2072002,29.4947779 C52.2072002,35.0216844 53.8150275,37.8856268 56.0257901,37.8856268 C57.683862,37.8856268 59.5429124,36.2777995 61.0502505,33.0119002 L62.1556318,33.6148355 C60.0453584,38.5890513 57.0809268,39.8451664 54.9204088,39.8451664 C51.8867108,39.8451664 48.4376605,37.4453529 48.1558843,30.7880677 Z M42.0377613,12.680965 C40.5806678,12.680965 39.4250419,11.4750945 39.4250419,10.0180009 C39.4250419,8.56090741 40.5806678,7.40528151 42.0377613,7.40528151 C43.4948548,7.40528151 44.6504807,8.56090741 44.6504807,10.0180009 C44.6504807,11.4750945 43.4948548,12.680965 42.0377613,12.680965 Z" id="Rit"></path>
                    </g>
                </g>
            </g>
        </g>
    </g>
</svg>