<?xml version="1.0" encoding="UTF-8"?>
<svg width="18px" height="20px" viewBox="0 0 18 20" version="1.1" xmlns="http://www.w3.org/2000/svg" xmlns:xlink="http://www.w3.org/1999/xlink">
    <!-- Generator: Sketch 43.2 (39069) - http://www.bohemiancoding.com/sketch -->
    <title>Share1</title>
    <desc>Created with Sketch.</desc>
    <defs></defs>
    <g id="Pages" stroke="none" stroke-width="1" fill="none" fill-rule="evenodd" opacity="0.437216938">
        <g id="Info-Popup-Compare" transform="translate(-116.000000, -411.000000)" fill-rule="nonzero" fill="#000000">
            <g id="Share1" transform="translate(116.000000, 411.000000)">
                <g id="Capa_1">
                    <path d="M14.3382353,13.3333333 C13.5802941,13.3333333 12.8841176,13.5928889 12.32625,14.0248889 L6.56977941,10.5455556 C6.59867647,10.3675556 6.61764706,10.186 6.61764706,10 C6.61764706,9.81355556 6.59867647,9.63244444 6.56977941,9.45422222 L12.32625,5.97488889 C12.8841176,6.40733333 13.5802941,6.66666667 14.3382353,6.66666667 C16.1653676,6.66666667 17.6470588,5.174 17.6470588,3.33333333 C17.6470588,1.49266667 16.1653676,0 14.3382353,0 C12.5111029,0 11.0294118,1.49266667 11.0294118,3.33333333 C11.0294118,3.51933333 11.0483824,3.70088889 11.0777206,3.87888889 L5.32125,7.35822222 C4.76338235,6.92622222 4.06720588,6.66666667 3.30882353,6.66666667 C1.48169118,6.66666667 0,8.15933333 0,10 C0,11.8406667 1.48169118,13.3333333 3.30882353,13.3333333 C4.06720588,13.3333333 4.76338235,13.074 5.32125,12.6415556 L11.0777206,16.1208889 C11.0483824,16.2991111 11.0294118,16.4802222 11.0294118,16.6666667 C11.0294118,18.5073333 12.5111029,20 14.3382353,20 C16.1653676,20 17.6470588,18.5073333 17.6470588,16.6666667 C17.6470588,14.826 16.1653676,13.3333333 14.3382353,13.3333333 Z" id="Shape"></path>
                </g>
            </g>
        </g>
    </g>
</svg>