<?xml version="1.0" encoding="UTF-8"?>
<svg width="50px" height="50px" viewBox="0 0 50 50" version="1.1" xmlns="http://www.w3.org/2000/svg" xmlns:xlink="http://www.w3.org/1999/xlink">
    <!-- Generator: Sketch 43.2 (39069) - http://www.bohemiancoding.com/sketch -->
    <title>TextShare</title>
    <desc>Created with Sketch.</desc>
    <defs></defs>
    <g id="Pages" stroke="none" stroke-width="1" fill="none" fill-rule="evenodd">
        <g id="Topic-Add-OK" transform="translate(-223.000000, -452.000000)" fill-rule="nonzero">
            <g id="TextShare" transform="translate(223.000000, 452.000000)">
                <g id="Share">
                    <g id="XMLID_19_">
                        <ellipse id="XMLID_855_" fill="#BE1E2D" cx="25" cy="25" rx="24.9953589" ry="24.8187404"></ellipse>
                        <g id="XMLID_776_" transform="translate(11.092203, 7.050691)" fill="#FFFFFF">
                            <g id="share-alt_4_">
                                <path d="M27.6469678,12.8540707 C26.1571782,12.8540707 24.8329208,13.3471582 24.0052599,14.3333333 L11.09375,6.93701997 C11.2592822,6.60829493 11.2592822,5.95084485 11.2592822,5.62211982 C11.2592822,2.49923195 8.94183168,0.198156682 5.7967203,0.198156682 C2.65160891,0.198156682 0.334158416,2.49923195 0.334158416,5.62211982 C0.334158416,8.74500768 2.65160891,11.0460829 5.7967203,11.0460829 C7.2865099,11.0460829 8.61076733,10.5529954 9.43842822,9.56682028 L22.3499381,16.9631336 C22.1844059,17.4562212 22.1844059,17.9493088 22.1844059,18.2780338 C22.1844059,18.6067588 22.1844059,19.2642089 22.3499381,19.5929339 L9.43842822,27.1536098 C8.44523515,26.1674347 7.2865099,25.6743472 5.7967203,25.6743472 C2.81714109,25.6743472 0.499690594,27.9754224 0.499690594,30.9339478 C0.499690594,33.8924731 2.81714109,36.1935484 5.7967203,36.1935484 C8.7762995,36.1935484 11.09375,33.8924731 11.09375,30.9339478 C11.09375,30.6052227 11.09375,30.2764977 10.9282178,29.6190476 L23.8397277,22.0583717 C24.8329208,23.0445469 25.991646,23.5376344 27.4814356,23.5376344 C30.626547,23.5376344 32.9439975,21.2365591 32.9439975,18.1136713 C32.9439975,14.9907834 30.7920792,12.8540707 27.6469678,12.8540707 Z" id="XMLID_777_"></path>
                            </g>
                        </g>
                    </g>
                </g>
            </g>
        </g>
    </g>
</svg>