<?xml version="1.0" encoding="UTF-8"?>
<svg width="50px" height="50px" viewBox="0 0 50 50" version="1.1" xmlns="http://www.w3.org/2000/svg" xmlns:xlink="http://www.w3.org/1999/xlink">
    <!-- Generator: Sketch 43.2 (39069) - http://www.bohemiancoding.com/sketch -->
    <title>TwitterShare</title>
    <desc>Created with Sketch.</desc>
    <defs></defs>
    <g id="Pages" stroke="none" stroke-width="1" fill="none" fill-rule="evenodd">
        <g id="Topic-Add-OK" transform="translate(-88.000000, -452.000000)" fill="#598DCA">
            <g id="TwitterShare" transform="translate(88.000000, 452.000000)">
                <g id="Layer_1">
                    <path d="M28.4725,15.2358333 C26.29,16.03 24.9108333,18.0783333 25.0675,20.32 L25.12,21.185 L24.2466667,21.0791667 C21.0691667,20.6733333 18.2925,19.2966667 15.935,16.9833333 L14.7825,15.8358333 L14.4858333,16.6833333 C13.8575,18.5725 14.2591667,20.5675 15.5683333,21.9091667 C16.2666667,22.6508333 16.1091667,22.7566667 14.905,22.315 C14.4858333,22.1741667 14.1191667,22.0683333 14.0841667,22.1208333 C13.9625,22.245 14.3808333,23.8508333 14.7125,24.4866667 C15.1666667,25.37 16.0916667,26.2341667 17.105,26.7466667 L17.9608333,27.1525 L16.9483333,27.17 C15.9708333,27.17 15.9358333,27.1875 16.0408333,27.5591667 C16.39,28.7066667 17.7691667,29.925 19.3058333,30.455 L20.3883333,30.825 L19.4458333,31.39 C18.0491667,32.2033333 16.4075,32.6616667 14.7658333,32.6958333 C13.9791667,32.7133333 13.3333333,32.7841667 13.3333333,32.8375 C13.3333333,33.0133333 15.4641667,34.0016667 16.7033333,34.3908333 C20.4225,35.5383333 24.8408333,35.0433333 28.1583333,33.0841667 C30.5158333,31.6891667 32.8725,28.9175 33.9733333,26.2333333 C34.5675,24.8041667 35.1608333,22.1908333 35.1608333,20.9383333 C35.1608333,20.1258333 35.2133333,20.02 36.1908333,19.0491667 C36.7675,18.4841667 37.3083333,17.8666667 37.4133333,17.69 C37.5883333,17.3541667 37.57,17.3541667 36.68,17.6541667 C35.1958333,18.1841667 34.9858333,18.1133333 35.72,17.3191667 C36.2608333,16.7541667 36.9075,15.73 36.9075,15.43 C36.9075,15.3775 36.6458333,15.465 36.3483333,15.6241667 C36.0341667,15.8008333 35.3358333,16.0658333 34.8116667,16.2241667 L33.8691667,16.525 L33.0133333,15.9416667 C32.5416667,15.6241667 31.8791667,15.2708333 31.5291667,15.165 C30.6383333,14.9183333 29.2758333,14.9533333 28.4725,15.2358333 Z M25,50 C11.1933333,50 0,38.8066667 0,25 C0,11.1925 11.1933333,0 25,0 C38.8066667,0 50,11.1925 50,25 C50,38.8066667 38.8066667,50 25,50 Z" id="Shape"></path>
                </g>
            </g>
        </g>
    </g>
</svg>