<?xml version="1.0" encoding="UTF-8"?>
<svg width="22px" height="14px" viewBox="0 0 22 14" version="1.1" xmlns="http://www.w3.org/2000/svg" xmlns:xlink="http://www.w3.org/1999/xlink">
    <!-- Generator: Sketch 43.2 (39069) - http://www.bohemiancoding.com/sketch -->
    <title>user</title>
    <desc>Created with Sketch.</desc>
    <defs></defs>
    <g id="Pages" stroke="none" stroke-width="1" fill="none" fill-rule="evenodd">
        <g id="Friends" transform="translate(-233.000000, -152.000000)" fill="#000000">
            <g id="Group-2" transform="translate(0.000000, 136.000000)">
                <path d="M240.001,24.001 C237.668,24.001 233,25.168 233,27.501 L233,30 L247.001,30 L247.001,27.501 C247.001,25.168 242.335,24.001 240.001,24.001 M248.002,24.001 C247.711,24.001 247.385,24.019 247.036,24.055 C248.194,24.893 249.001,26.018 249.001,27.501 L249.001,30 L255,30 L255,27.501 C255,25.168 250.335,24.001 248.002,24.001 M240.001,16 C238.345,16 237.001,17.345 237.001,19.001 C237.001,20.657 238.345,22.001 240.001,22.001 C241.658,22.001 242.992,20.657 242.992,19.001 C242.992,17.345 241.658,16 240.001,16 M248.002,16 C246.344,16 245.001,17.345 245.001,19.001 C245.001,20.657 246.344,22.001 248.002,22.001 C249.658,22.001 250.991,20.657 250.991,19.001 C250.991,17.345 249.658,16 248.002,16" id="user"></path>
            </g>
        </g>
    </g>
</svg>